#N canvas 220 84 963 649 10;
#X declare -lib mrpeach;
#X obj -208 181 udpsend;
#X msg -162 150 disconnect;
#X obj -208 80 packOSC;
#X msg -292 45 typetags \$1;
#X obj -292 23 tgl 15 0 empty empty empty 17 7 0 10 -257985 -258113
-1 0 1;
#X obj -258 -200 tgl 15 0 empty empty empty 17 7 0 10 -262144 -1 -1
0 1;
#X obj -258 -149 bng 15 250 50 0 empty empty empty 17 7 0 10 -262144
-1 -1;
#X floatatom -208 -46 10 0 0 0 - - -;
#X obj 14 120 import mrpeach;
#X obj -82 -200 tgl 15 0 empty empty empty 17 7 0 10 -262144 -1 -1
0 1;
#X obj -25 -117 f;
#X obj -82 -149 bng 15 250 50 0 empty empty empty 17 7 0 10 -262144
-1 -1;
#X floatatom -28 -39 5 0 0 0 - - -;
#X obj -208 -109 f;
#X obj -2 -174 receive angle;
#X msg -25 -90 \$1 100;
#X obj -208 -17 int;
#X obj -29 -11 int;
#X obj -186 -176 receive speed;
#X obj -258 -173 metro 100;
#X obj -82 -173 metro 100;
#X msg -208 19 send /speed \$1;
#X msg -28 17 send /angle \$1;
#X msg -178 120 connect 192.168.168.201 7110;
#X msg -208 -82 \$1 100;
#X connect 1 0 0 0;
#X connect 2 0 0 0;
#X connect 3 0 2 0;
#X connect 4 0 3 0;
#X connect 5 0 19 0;
#X connect 6 0 13 0;
#X connect 7 0 16 0;
#X connect 9 0 20 0;
#X connect 10 0 15 0;
#X connect 11 0 10 0;
#X connect 12 0 17 0;
#X connect 13 0 24 0;
#X connect 14 0 10 1;
#X connect 15 0 12 0;
#X connect 16 0 21 0;
#X connect 17 0 22 0;
#X connect 18 0 13 1;
#X connect 19 0 6 0;
#X connect 20 0 11 0;
#X connect 21 0 2 0;
#X connect 22 0 2 0;
#X connect 23 0 0 0;
#X connect 24 0 7 0;
